<?xml version="1.0" encoding="utf-8"?>
<!-- Generator: Adobe Illustrator 24.3.0, SVG Export Plug-In . SVG Version: 6.00 Build 0)  -->
<svg version="1.1" id="Layer_1" xmlns="http://www.w3.org/2000/svg" xmlns:xlink="http://www.w3.org/1999/xlink" x="0px" y="0px"
	 viewBox="0 0 595.3 595.3" style="enable-background:new 0 0 595.3 595.3;" xml:space="preserve">
<style type="text/css">
	.st0{fill:none;stroke:#FFFFFF;stroke-width:11.1752;stroke-linecap:round;stroke-linejoin:round;stroke-miterlimit:10;}
</style>
<path class="st0" d="M249,409.8c-5.8-4.6-13.7-8.8,2.9-26.9c25.4-27.6,66.6-80.7,73.7-264.7c0,0,4.9-117,130.1-63.8
	c16.8,7.1,30.3,20.4,37.5,37.1c13.3,30.5,37.9,81.6,60.1,97.4c5.7,4,10.3,9.4,13,15.8c3.4,8.1,4.7,17-6.7,15.8
	c-20.4-2-109.6-57.8-109.6-57.8s-44.6-9.3-57.6,44.6c-13,53.9,42.7,178.3,42.7,178.3S362.9,499.9,249,409.8z"/>
<path class="st0" d="M294.1,319.1c0,0,43,56.2,13.1,118.1"/>
<path class="st0" d="M317.5,369c0,0,69.9-15.6,83.6,50.7"/>
<path class="st0" d="M372.7,376.7c0,0-25-39.8,33.6-68.4"/>
<path class="st0" d="M488.9,83.2c0,0-15.7,50-53.5,79.5"/>
<circle class="st0" cx="420.4" cy="74.6" r="17.6"/>
<path class="st0" d="M240.6,400.1c0,0-98.9-91.8,3.3-216C311.4,102,115.7,16.9,84.1,41C59,60.2,73.8,149.8,80.9,185.8
	c1.9,9.7,3.1,19.5,3.3,29.4C85.9,271.8,105.2,467.3,240.6,400.1z"/>
<path class="st0" d="M70.4,81.4c0,0,62,16.6,93.6,40.6"/>
<path class="st0" d="M71.5,122c0,0,39.8,14.7,45.7,20.3"/>
<path class="st0" d="M435.2,385.7c0,0,66,150.3-130.5,169.5C108.3,574.4,86.4,504.3,164,412"/>
</svg>
